<svg width="18" height="19" viewBox="0 0 18 19" fill="none" xmlns="http://www.w3.org/2000/svg">
<g clip-path="url(#clip0_228_854)">
<path d="M17.2314 8.89489L17.2314 8.89496C17.4533 9.12841 17.5774 9.4383 17.5774 9.76055V9.76211V9.76368V9.76524V9.76681V9.76839V9.76996V9.77154V9.77312V9.77471V9.7763V9.77789V9.77948V9.78108V9.78268V9.78428V9.78589V9.78749V9.7891V9.79072V9.79234V9.79395V9.79558V9.7972V9.79883V9.80046V9.8021V9.80373V9.80537V9.80701V9.80866V9.81031V9.81196V9.81361V9.81527V9.81693V9.81859V9.82025V9.82192V9.82359V9.82526V9.82694V9.82862V9.8303V9.83198V9.83367V9.83536V9.83705V9.83875V9.84044V9.84214V9.84385V9.84555V9.84726V9.84897V9.85068V9.8524V9.85412V9.85584V9.85756V9.85929V9.86102V9.86275V9.86449V9.86622V9.86796V9.86971V9.87145V9.8732V9.87495V9.8767V9.87846V9.88021V9.88198V9.88374V9.8855V9.88727V9.88904V9.89081V9.89259V9.89437V9.89615V9.89793V9.89972V9.90151V9.9033V9.90509V9.90689V9.90868V9.91049V9.91229V9.91409V9.9159V9.91771V9.91953V9.92134V9.92316V9.92498V9.9268V9.92863V9.93045V9.93228V9.93411V9.93595V9.93779V9.93962V9.94147V9.94331V9.94516V9.94701V9.94886V9.95071V9.95257V9.95442V9.95628V9.95815V9.96001V9.96188V9.96375V9.96562V9.96749V9.96937V9.97125V9.97313V9.97501V9.9769V9.97879V9.98068V9.98257V9.98446V9.98636V9.98826V9.99016V9.99206V9.99397V9.99588V9.99779V9.9997V10.0016V10.0035V10.0054V10.0074V10.0093V10.0112V10.0131V10.0151V10.017V10.0189V10.0209V10.0228V10.0248V10.0267V10.0286V10.0306V10.0325V10.0345V10.0364V10.0384V10.0403V10.0423V10.0443V10.0462V10.0482V10.0502V10.0521V10.0541V10.0561V10.0581V10.06V10.062V10.064V10.066V10.068V10.0699V10.0719V10.0739V10.0759V10.0779V10.0799V10.0819V10.0839V10.0859V10.0879V10.0899V10.0919V10.0939V10.096V10.098V10.1V10.102V10.104V10.106V10.1081V10.1101V10.1121V10.1141V10.1162V10.1182V10.1202V10.1223V10.1243V10.1264V10.1284V10.1304V10.1325V10.1345V10.1366V10.1386V10.1407V10.1427V10.1448V10.1469V10.1489V10.151V10.153V10.1551V10.1572V10.1592V10.1613V10.1634V10.1655V10.1675V10.1696V10.1717V10.1738V10.1758V10.1779V10.18V10.1821V10.1842V10.1863V10.1884V10.1905V10.1926V10.1947V10.1968V10.1989V10.201V10.2031V10.2052V10.2073V10.2094V10.2115V10.2136V10.2157V10.2178V10.2199V10.2221V10.2242V10.2263V10.2284V10.2305V10.2327V10.2348V10.2369V10.2391V10.2412V10.2433V10.2455V10.2476V10.2497V10.2519V10.254V10.2561V10.2583V10.2604V10.2626V10.2647V10.2669V10.269V10.2712V10.2733V10.2755V10.2776V10.2798V10.2819V10.2841V10.2863V10.2884V10.2906V10.2928V10.2949V10.2971V10.2993V10.3014V10.3036V10.3058V10.308V10.3101V10.3123V10.3145V10.3167V10.3188V10.321V10.3232V10.3254V10.3276V10.3298V10.332V10.3341V10.3363V10.3385V10.3407V10.3429V10.3451V10.3473V10.3495V10.3517V10.3539V10.3561V10.3583V10.3605V10.3627V10.3649V10.3671V10.3693V10.3716V10.3738V10.376V10.3782V10.3804V10.3826V10.3848V10.3871V10.3893V10.3915V10.3937V10.3959V10.3982V10.4004V10.4026V10.4048V10.4071V10.4093V10.4115V10.4138V10.416V10.4182V10.4204V10.4227V10.4249V10.4272V10.4294V10.4316V10.4339V10.4361V10.4384V10.4406V10.4428V10.4451V10.4473V10.4496V10.4518V10.4541V10.4563V10.4586V10.4608V10.4631V10.4653V10.4676V10.4698V10.4721V10.4743V10.4766V10.4789V10.4811V10.4834V10.4856V10.4879V10.4902V10.4924V10.4947V10.497V10.4992V10.5015V10.5038V10.506V10.5083V10.5106V10.5128V10.5151V10.5174V10.5196V10.5219V10.5242V10.5265V10.5287V10.531V10.5333V10.5356V10.5379V10.5401V10.5424V10.5447V10.547V10.5493V10.5515V10.5538V10.5561V10.5584V10.5607V10.563V10.5653V10.5675V10.5698V10.5721V10.5744V10.5767V10.579V10.5813V10.5836V10.5859V10.5882V10.5904V10.5927V10.595V10.5973V10.5996V10.6019V10.6042V10.6065V10.6088V10.6111V10.6134V10.6157V10.618V10.6203V10.6226V10.6249V10.6272V10.6295V10.6318V10.6341V10.6364V10.6387V10.641V10.6433V10.6457V10.648V10.6503V10.6526V10.6549V10.6572V10.6595V10.6618V10.6641V10.6664V10.6687V10.671V10.6734V10.6757V10.678V10.6803V10.6826V10.6849V10.6872V10.6895V10.6918V10.6942V10.6965V10.6988V10.7011V10.7034V10.7057V10.708V10.7104V10.7127V10.715V10.7173V10.7196V10.7219V10.7243V10.7266V10.7289V10.7312V10.7335V10.7359V10.7382V10.7405V10.7428V10.7451V10.7474V10.7498V10.7521V10.7544V10.7567V10.759V10.7614V10.7637V10.766V10.7683V10.7707V10.773V10.7753V10.7776V10.7799V10.7823V10.7846V10.7869V10.7892V10.7915V10.7939V10.7962V10.7985V10.8008V10.8032V10.8055V10.8078V10.8101V10.8124V10.8148V10.8171V10.8194C17.5774 11.2273 17.3289 11.5939 16.9503 11.7456C16.5715 11.8974 16.1385 11.8025 15.8577 11.5073L17.2314 8.89489ZM17.2314 8.89489C16.9069 8.5539 16.2553 7.86926 15.4592 7.03278C13.7718 5.25972 11.435 2.80444 10.1881 1.49375L10.188 1.49369C9.87759 1.16783 9.44731 0.983871 8.99753 0.983871C8.54771 0.983871 8.11798 1.16787 7.80759 1.49369L7.80753 1.49375C6.56078 2.80422 4.22463 5.25889 2.53724 7.03188C1.74076 7.86877 1.08882 8.55378 0.764234 8.89489C0.541654 9.12851 0.418197 9.43849 0.418197 9.76055V10.8194C0.418197 11.2271 0.666046 11.5939 1.04529 11.7456C1.42419 11.8974 1.85667 11.8024 2.13789 11.5073L2.13796 11.5072L2.38303 11.2497M17.2314 8.89489L2.38303 11.2497M2.38303 11.2497V16.2172C2.38303 17.2109 3.18836 18.0157 4.18145 18.0157H4.19538H4.20937H4.22341H4.23751H4.25167H4.26588H4.28016H4.29448H4.30887H4.3233H4.3378H4.35235H4.36695H4.38161H4.39632H4.41109H4.42591H4.44078H4.45571H4.47069H4.48572H4.50081H4.51595H4.53114H4.54639H4.56168H4.57703H4.59243H4.60788H4.62338H4.63893H4.65454H4.67019H4.68589H4.70165H4.71745H4.7333H4.7492H4.76515H4.78115H4.7972H4.8133H4.82944H4.84564H4.86188H4.87816H4.8945H4.91088H4.92731H4.94378H4.96031H4.97687H4.99349H5.01014H5.02685H5.0436H5.06039H5.07723H5.09412H5.11104H5.12802H5.14503H5.16209H5.17919H5.19634H5.21353H5.23076H5.24804H5.26535H5.28271H5.30011H5.31755H5.33504H5.35256H5.37013H5.38773H5.40538H5.42307H5.44079H5.45856H5.47637H5.49421H5.5121H5.53002H5.54798H5.56598H5.58402H5.6021H5.62021H5.63837H5.65655H5.67478H5.69304H5.71134H5.72968H5.74805H5.76646H5.78491H5.80339H5.8219H5.84045H5.85904H5.87766H5.89631H5.915H5.93372H5.95248H5.97127H5.99009H6.00895H6.02784H6.04676H6.06571H6.0847H6.10371H6.12276H6.14185H6.16096H6.1801H6.19927H6.21848H6.23771H6.25698H6.27627H6.2956H6.31495H6.33434H6.35375H6.37319H6.39266H6.41216H6.43168H6.45124H6.47082H6.49043H6.51006H6.52973H6.54942H6.56913H6.58888H6.60865H6.62844H6.64826H6.66811H6.68798H6.70787H6.72779H6.74774H6.76771H6.7877H6.80772H6.82776H6.84782H6.86791H6.88802H6.90816H6.92831H6.94849H6.96869H6.98891H7.00915H7.02942H7.0497H7.07001H7.09034H7.11069H7.13105H7.15144H7.17185H7.19228H7.21272H7.23319H7.25367H7.27418H7.2947H7.31524H7.3358H7.35637H7.37697H7.39758H7.41821H7.43885H7.45951H7.48019H7.50088H7.52159H7.54232H7.56306H7.58382H7.60459H7.62537H7.64617H7.66699H7.68782H7.70866H7.72952H7.75039H7.77127H7.79217H7.81308H7.834H7.85494H7.87588H7.89684H7.91781H7.93879H7.95979H7.98079H8.00181H8.02283H8.04387H8.06491H8.08597H8.10703H8.12811H8.14919H8.17029H8.19139H8.2125H8.23362H8.25474H8.27588H8.29702H8.31817H8.33933H8.36049H8.38166H8.40284H8.42402H8.44521H8.46641H8.48761H8.50881H8.53003H8.55124H8.57246H8.59369H8.61492H8.63615H8.65739H8.67863H8.69988H8.72113H8.74238H8.76363H8.78489H8.80614H8.8274H8.84867H8.86993H8.8912H8.91246H8.93373H8.955H8.97627H8.99753H9.0188H9.04007H9.06134H9.08261H9.10387H9.12514H9.1464H9.16766H9.18892H9.21018H9.23144H9.25269H9.27394H9.29519H9.31643H9.33768H9.35891H9.38015H9.40138H9.4226H9.44383H9.46504H9.48625H9.50746H9.52866H9.54986H9.57105H9.59223H9.61341H9.63458H9.65574H9.6769H9.69805H9.71919H9.74032H9.76145H9.78257H9.80368H9.82478H9.84588H9.86696H9.88803H9.9091H9.93016H9.9512H9.97224H9.99326H10.0143H10.0353H10.0563H10.0773H10.0982H10.1192H10.1401H10.1611H10.182H10.2029H10.2238H10.2447H10.2655H10.2864H10.3073H10.3281H10.3489H10.3697H10.3905H10.4113H10.432H10.4528H10.4735H10.4942H10.5149H10.5356H10.5562H10.5769H10.5975H10.6181H10.6387H10.6593H10.6798H10.7004H10.7209H10.7414H10.7619H10.7823H10.8028H10.8232H10.8436H10.864H10.8844H10.9047H10.9251H10.9454H10.9656H10.9859H11.0062H11.0264H11.0466H11.0668H11.0869H11.107H11.1272H11.1472H11.1673H11.1873H11.2074H11.2274H11.2473H11.2673H11.2872H11.3071H11.327H11.3468H11.3666H11.3864H11.4062H11.4259H11.4457H11.4653H11.485H11.5046H11.5242H11.5438H11.5634H11.5829H11.6024H11.6219H11.6413H11.6607H11.6801H11.6995H11.7188H11.7381H11.7574H11.7766H11.7958H11.815H11.8341H11.8532H11.8723H11.8914H11.9104H11.9294H11.9483H11.9672H11.9861H12.005H12.0238H12.0426H12.0613H12.0801H12.0988H12.1174H12.136H12.1546H12.1732H12.1917H12.2102H12.2286H12.247H12.2654H12.2837H12.302H12.3203H12.3385H12.3567H12.3749H12.393H12.411H12.4291H12.4471H12.465H12.483H12.5009H12.5187H12.5365H12.5543H12.572H12.5897H12.6073H12.6249H12.6425H12.66H12.6775H12.695H12.7124H12.7297H12.747H12.7643H12.7815H12.7987H12.8159H12.833H12.85H12.8671H12.884H12.901H12.9178H12.9347H12.9515H12.9682H12.9849H13.0016H13.0182H13.0348H13.0513H13.0678H13.0842H13.1006H13.1169H13.1332H13.1494H13.1656H13.1818H13.1979H13.2139H13.2299H13.2459H13.2618H13.2776H13.2934H13.3092H13.3249H13.3405H13.3561H13.3717H13.3872H13.4026H13.418H13.4334H13.4487H13.4639H13.4791H13.4943H13.5093H13.5244H13.5394H13.5543H13.5692H13.584H13.5987H13.6135H13.6281H13.6427H13.6573H13.6718H13.6862H13.7006H13.7149H13.7292H13.7434H13.7576H13.7717H13.7857H13.7997H13.8136C14.8067 18.0157 15.612 17.2109 15.612 16.2172V11.2494L15.8576 11.5072L2.38303 11.2497ZM11.5431 17.1215V12.4866C11.5431 11.8119 11.2749 11.1641 10.7977 10.6869C10.32 10.2092 9.67284 9.94103 8.99753 9.94103C8.3223 9.94103 7.67515 10.2092 7.19795 10.6869C6.72015 11.1641 6.45199 11.8118 6.45199 12.4866V17.1215H4.18145C3.68198 17.1215 3.27718 16.7167 3.27718 16.2172V10.3097L8.4553 4.86894L8.45534 4.8689C8.59666 4.72029 8.79259 4.63604 8.99753 4.63604C9.20238 4.63604 9.39837 4.72022 9.54031 4.86894L11.5431 17.1215ZM11.5431 17.1215H13.8136C14.3131 17.1215 14.7179 16.7167 14.7179 16.2172V10.3097L9.54043 4.86906L11.5431 17.1215ZM1.41198 9.51153L1.41187 9.51165C1.34776 9.57887 1.31235 9.66785 1.31235 9.76055V10.8194C1.31235 10.8622 1.33822 10.8998 1.37647 10.915L1.37713 10.9152C1.4161 10.9309 1.46072 10.9213 1.49023 10.8906C1.49028 10.8905 1.49033 10.8905 1.49038 10.8904L7.80754 4.25229L7.80759 4.25223C8.1179 3.9265 8.54758 3.74189 8.99753 3.74189C9.44743 3.74189 9.87768 3.92646 10.188 4.25223L10.1881 4.25231C11.7235 5.86633 14.912 9.21691 16.5054 10.8906L16.5056 10.8908C16.5344 10.9212 16.5792 10.9309 16.6177 10.9153L16.6186 10.915C16.6573 10.8997 16.6833 10.8617 16.6833 10.8194V9.76055C16.6833 9.66829 16.6476 9.57913 16.5836 9.51153C16.5836 9.51147 16.5835 9.5114 16.5834 9.51133L9.54043 2.11052L1.41198 9.51153ZM1.41198 9.51153L8.4553 2.11039L8.45534 2.11035M1.41198 9.51153L8.45534 2.11035M8.45534 2.11035C8.59651 1.96189 8.79238 1.87802 8.99753 1.87802M8.45534 2.11035L8.99753 1.87802M8.99753 1.87802C9.20259 1.87802 9.39851 1.96182 9.54031 2.11039L8.99753 1.87802ZM10.6489 12.4866V17.1215H7.34614V12.4866C7.34614 12.0489 7.52034 11.629 7.82997 11.3188C8.13947 11.0094 8.5598 10.8352 8.99753 10.8352C9.43583 10.8352 9.85565 11.0094 10.1652 11.3189C10.4752 11.629 10.6489 12.0488 10.6489 12.4866Z" fill="black" stroke="black" stroke-width="0.284211"/>
</g>
<defs>
<clipPath id="clip0_228_854">
<rect width="18" height="18" fill="white" transform="translate(0 0.5)"/>
</clipPath>
</defs>
</svg>
